<?xml version="1.0" encoding="UTF-8"?>
<svg version="1.1" viewBox="0 0 2000 2000" width="500" height="500" xmlns="http://www.w3.org/2000/svg">
<path transform="translate(583,197)" d="m0 0h30l22 3 14 4 16 6 16 8 11 7 13 10 15 14 9 11 10 13 9 16 10 24 5 16 2 7 13 3 15 5 15 8 5 1 19-10 21-10 72-36 19-10 31-16 17-9 6-2 8 1 118 59 17 9 56 28 23 11 17 9 76 38 25 12 9 7 8 11 8 13v5l-8 6-34 17-22 12-12 7-16 8-23 12-15 7-1 2 37 1h173l28 1 15 2 18 6 16 9 11 9 6 5 9 11 8 13 5 11 4 12 2 13 1 101 1 27 9-8 14-10 10-7 15-9 15-7 17-5 13-2h33l20 4 20 7 13 7 16 11 13 12 9 10 11 18 8 20 5 20 2 11 14 2 15 5 11 6 11 9 8 9 7 11 5 14 2 10v16l-4 18-8 16-8 11-11 11-14 9-18 6-17 2-227 1-10 1-1 238h35l1 1 1 29v294l21-7 16-3h29l16 3 16 6 11 6 14 10 12 11 10 13 8 16 6 16 3 13 1 1 21 3 15 5 15 9 9 8 10 13 7 14 4 14 1 6v18l-4 17-5 13-9 14-9 10-12 9-14 8-15 5-11 2h-526l-19-5-12-5-11-7-10-8-10-10-7-10-8-15-5-15-3-14-10-1-155-1h-468l-19-1-17-3-16-6-18-10-13-11-8-7-11-14-8-13-7-15-3-11-2-16-1-101-1-151-121-1-34-1-14-2-16-6-11-7-10-9-8-8-9-14-6-14-3-16v-18l3-17 6-15 8-12 9-10 12-9 14-7 20-6 12-1 5-5 8-12 9-11 8-8 15-11 17-8 13-4 12-2h29l21 5 17 7 17 9 10 8 4 3v-458l1-72 1-7h-161l-21-3-15-4-14-6-16-10-14-13-8-10-9-14-6-13-5-17-2-13v-27l3-17 6-16 9-16 11-14 11-11 14-10 13-6 21-6 12-2 11-1 3-3 8-19 10-16 9-11 9-9 14-10 16-8 15-5 14-3 8-1h17l22 4 17 4 10-20 10-16 10-13 9-10 13-12 16-11 16-9 16-7 15-5 18-3z" fill="#393E5C"/>
<path transform="translate(583,197)" d="m0 0h30l22 3 14 4 16 6 16 8 11 7 13 10 15 14 9 11 10 13 9 16 10 24 5 16 2 7 13 3 15 5 15 8 5 1 19-10 21-10 72-36 19-10 31-16 17-9 6-2 8 1 118 59 17 9 56 28 23 11 17 9 76 38 25 12 9 7 8 11 8 13v5l-8 6-34 17-22 12-12 7-16 8-23 12-15 7-1 2h7v1l-8 1-14 9-11 6v4l9 1h241l19 1 13 3 19 10 15 12 11 14 8 17 2 9 1 21v577l-1 1h-111l-2-4v-24h-51l-1-1-1-357 1-2 11-1h21l-1-63-232-1v366h-17l-1-28h-24v-335l25-1 1-27 3-1h17l1-43h-364v43h16l5 1 1 2v26h28l1 1v334l-27 1-1 27-1 1h-15l-1-1-1-59v-307l-233 1v63h32l1 2v358l-1 1-51 1 1 26-1 1h-114l-1-7v-572l1-19 4-13 8-15 7-9 9-10 11-8 16-8 16-3 114-1h48v-21h-144l-23 1-16 4-15 6-15 9-13 12-7 8-9 14-7 15-2 6h-162l-21-3-15-4-14-6-16-10-14-13-8-10-9-14-6-13-5-17-2-13v-27l3-17 6-16 9-16 11-14 11-11 14-10 13-6 21-6 12-2 11-1 3-3 8-19 10-16 9-11 9-9 14-10 16-8 15-5 14-3 8-1h17l22 4 17 4 10-20 10-16 10-13 9-10 13-12 16-11 16-9 16-7 15-5 18-3z" fill="#FDFDFC"/>
<path transform="translate(996,292)" d="m0 0h8l32 16 25 12 19 10 16 8 25 12 52 26 19 10 32 16 21 10 17 9 23 11 28 14 11 5-1 3-29 14-26 12-16 8-25 12-32 16-20 11-1 2-1 117-11-2-19-5-18-2-19-1h-23l-30 2-17 4-17 5-11 5-5 2-9-1-17-7-26-7-19-2h-57l-23 3-22 6h-2l-1-118-23-12-16-8-23-11-24-11-3-1 1 70 9 4 4 5 3 7v15l-4 8-2 1 3 10 10 27v4l-30 15-5-1-17-9-10-6 1-5 4-9 6-17 3-7-6-9-1-3v-14l4-8 7-6 8-3v-75l-8-5-27-13-15-8v-4l9-4 42-21 23-11 42-21 23-11 16-8 25-12 16-8 23-11 17-9 24-11 44-22z" fill="#4D79B0"/>
<path transform="translate(1638,1536)" d="m0 0h29l16 3 16 6 11 6 14 10 12 11 10 13 8 16 6 16 3 13 1 1 21 3 15 5 15 9 9 8 10 13 7 14 4 14 1 6v18l-4 17-5 13-9 14-9 10-12 9-14 8-15 5-11 2h-526l-19-5-12-5-11-7-10-8-10-10-7-10-8-15-5-15-2-9v-5l14-1 322-1 20-3 22-9 16-10 11-9 11-11 7-9 8-13 7-14 5-21 2-18 1-46 23-7z" fill="#FDFDFD"/>
<path transform="translate(1e3 1290)" d="m0 0h32l-3 16-10 44-5 24-6 25-4 18v6l4 4h8l9-4 7-7 1-19 7-24 9-16 10-11 10-7 16-5h13l12 5 10 7v-8l7-2h27l-1 7-7 31-6 26-4 16v7l3 3h11l6-3 5-6 3-2 2-20 6-19 3-8 7-11 10-10 9-6 13-5 12-2h11l12 3 12 6 6 7 4 10v8l-6 12-8 5-4 1h-9l-7-2-1-3 4-6 1-3v-8l-5-5-2-1h-9l-11 6-7 10-5 16-2 10v13l4 10 6 4 6 2h13l7-1-2-6v-7l10-10 5 1 5 4 4 9h6l9-3 2-4 3-4 4-23 4-11 6-12 9-12 9-8 14-6 9-2h12l12 5 5 5 4 2 1-7 2-2 9-1h22l1 2-9 40-8 36v9l2 4h8l7-3 7-6 3-4 1-16 4-19 8-17 8-10 9-8 12-6 9-3 6-1h14l13 3 10 5 7 7 5 9 2 9v20l9-2 15-8 4 1 2 4v6l-6 7-11 7-16 7-6 13-4 8-7 9-13 9-17 6-5 1h-14l-12-3-12-6-6-7-1-2-3-1-1 3-9 7-10 5-10 3-12 1-9-2-11-7-2-6-4 1-8 7-15 6-4 1-13-1-12-5-5-4-7-10-1-3-6 2-8 7-10 6-18 6-14 3-8 2v7l6 7v9l-5 12-5 5-6 4-3 1h-17l-6-3-3-6 2-9 7-4 5 1 1 5h7l2-1v-13l-9-1-2-1 1-5 4-9v-3l-15-5-10-9-1-6-5 5-12 9-15 5-4 1h-13l-10-4-5-4-3-5v-2l-5 3-7 6-12 5-4 1h-15l-10-4-6-4-7-7-4 2-10 7-18 6-10 1-9-2-9-5-4-5-1-2-5 1-8 6-16 6-6 1h-8l-11-4-7-5-2-6-5 1-8 7-15 6-4 1h-12l-8-3-9-6-4-6-5 1-10 7-17 6-8 1-11-2-9-5-4-5-2-9v-10l4-24 4-15 1-6v-12l-2-4-3-1h-10l-8 3-6 8-7 24-5 24-5 23-1 7-1 1h-32l1-8 5-24 4-18 4-19 2-11-2-7-5-3h-9l-8 3-6 9-5 14-5 22-4 17-3 17-3 8h-33l1-5v-3l-3 4-17 6-10 1-10-2-9-5-5-6-2-4-1-7v-9l3-20 5-21 8-37 2-8 32-1 1 3-6 29-9 37-2 7-1 10 3 5 2 1h7l10-3 2-4 5-4 4-10 5-21 7-28 3-15 2-6h31l1 3-2 10 8-7 16-8 11-1 10 3 9 7 6 9 7-7 11-7 9-4h16l10 4 7 6 4 9v20l-3 18-5 17-1 5v10l2 4 6 1 11-4 9-10 2-6 2-12 5-18 4-21 6-20 19-1h12l1 3-12 56-4 17v10l4 4 7 1 9-2 8-7 6-12 7-31 5-22 4-15 3-2h30l1 2-4 12-6 28-7 30-2 10v5l4 4h9l8-4 7-8 5-17 10-45 7-30 4-20z" fill="#FDFCFA"/>
<path transform="translate(1659,707)" d="m0 0h33l20 4 20 7 13 7 16 11 13 12 9 10 11 18 8 20 5 20 2 11 14 2 15 5 11 6 11 9 8 9 7 11 5 14 2 10v16l-4 18-8 16-8 11-11 11-14 9-18 6-17 2-236 1-1-39v-110l1-79 9-8 14-10 10-7 15-9 15-7 17-5z" fill="#FDFDFD"/>
<path transform="translate(633,832)" d="m0 0h179l1 261-1 42h-24v30l-1 11-40 1v15l-1 1h-112l-1-1-1-220v-139z" fill="#E5BE73"/>
<path transform="translate(1188,832)" d="m0 0h168l11 1v359l-1 1h-111l-1-7v-9h-25l-15-1v-41h-26z" fill="#E5BE73"/>
<path transform="translate(967,431)" d="m0 0h64l39 3 28 6 16 5 15 6 12 7 13 10 7 8v156l-2 1-25-5-16-2h-40l-26 3-18 4-27 9-2 3 2 1-6 1-13-6-32-10-27-4-10-1h-37l-30 4-12 2-1-7v-88l1-64 12-10 14-9 16-8 15-5 26-6 27-3z" fill="#4D79B0"/>
<path transform="translate(948,743)" d="m0 0h107l1 1 1 25 1 1 24 1v335h-23v29h-14l-1-1-1-110-3-10-7-11-8-8-8-5-8-2h-18l-11 4-9 7-9 13-4 10-1 10-1 102h-14l-1-27-20-1v-335l25-1 1-26z" fill="#FDFCFB"/>
<path transform="translate(338,1115)" d="m0 0h29l21 5 17 7 17 9 10 8 3 3v72l-1 1-20 1h-14v38l-1 89h-121l-34-1-14-2-16-6-11-7-10-9-8-8-9-14-6-14-3-16v-18l3-17 6-15 8-12 9-10 12-9 14-7 20-6 12-1 5-5 8-12 9-11 8-8 15-11 17-8 13-4z" fill="#FDFDFD"/>
<path transform="translate(996,292)" d="m0 0h8l32 16 25 12 19 10 16 8 25 12 52 26 19 10 32 16 21 10 17 9 23 11 28 14 11 5-1 3-29 14-26 12-16 8-25 12-32 16-20 11-1 2-1 117-11-2-19-5-18-2-19-1h-23l-30 2-17 4-17 5-11 5-5 2-9-1-17-7-26-7-19-2h-57l-23 3-22 6h-2l-1-118-23-12-16-8-23-11-24-11-3-1 1 70 9 4 4 5 3 7v15l-4 8-2 1 3 10 10 27v4l-30 15-5-1-17-9-10-6 1-5 4-9 6-17 3-7-6-9-1-3v-14l4-8 7-6 8-3v-75l-8-5-27-13-15-8v-4l9-4 42-21 23-11 42-21 23-11 16-8 25-12 16-8 23-11 17-9 24-11 44-22zm3 9-23 12-29 14-17 9-23 11-16 8-21 10-16 8-17 8-74 37-23 11-19 9-23 10-3 1 2 4 28 13 40 20 23 11 25 12 13 7 3-1 1-45 4-5 13-10 11-7 10-6 16-7 22-6 28-5 30-3 21-1h21l36 2 43 6 28 7 15 6 16 8 15 10 11 11 1 2 1 28 1 13 6-1 16-8 19-9 17-9 21-10 16-8 16-7 14-7 1-3-39-19-39-20-23-12-76-38-23-11-15-8-16-8-33-16-16-8-19-10zm-32 130-29 2-25 4-26 7-16 7-16 10-15 12-1 66v86l1 7 25-4 17-2h37l26 3 18 4 27 9 11 5 6-1-2-1 2-3 30-10 21-4 20-2h40l23 3 19 4 1-1v-156l-7-8-16-12-16-8-16-6-30-7-15-2-30-2z" fill="#393F5E"/>
<path transform="translate(1403,1498)" d="m0 0h3l-1 9-7 34-6 27-5 23-1 7v8l2 3h6l10-6 3-4 2-20 4-13 8-14 9-9 9-6 9-2h13l7 2 6 5h1l2-6h23l3 1-2 10-4 16-4 22-3 11v10l2 2 7-1 4-2 9-17 13-2 6-1-1 5-7 14-7 10-6 7-11 7-5 1h-15l-9-3-7-8-7 6-7 4-4 1h-16l-7-3-9-8-4 1-13 8-6 2h-16l-7-3-4-4-1-2-6 1-9 6-9 2h-13l-7-2-6-7-5 1-8 6-8 2h-16l-9-3-7-8-1-7-8 6-16 8-7 3-7 1h-22l-10-3-12-8-2-1-15 10-8 2h-16l-7-3-6-7-2-7v-12l4-20 4-16 4-19 4-10h21l3 3-7 31-4 18-3 11v6l4 4 9-1 8-4 1-2 1-17 8-24 10-13 15-10 11-2h17l7 2 9 8 4 9v8l-5 10-3 2-11 1-6-2-1-5 3-3v-10l-2-2-7-1-7 3-6 7-5 10-2 10v16l3 7 4 3 9 2 10-2 8-4 7-8 12 2 5-5 3-5 5-26 4-16 2-10h26l-1 8-6 29-4 20v12l3 3h8l8-4 3-1 4-17 4-15 4-19 5-16h24l-1 13-6 26-4 20-1 3v7l3 3h7l9-5 5-12 5-25 4-13 5-25 4-16 2-12 1-1z" fill="#FDFBF8"/>
<path transform="translate(988,1186)" d="m0 0 256 1 1 4-1 29-1 1h-486l-1-1v-33z" fill="#FDFBF9"/>
<path transform="translate(1016,1504)" d="m0 0h24l1 2-3 10-4 20h16l-1 15-4 2h-15l-6 30-4 16 1 6 3 3 7 1 9-4 4-5 7-11 6-20 4-21 3-10 2-2h23l1 3-1 7 9-6 5-4 14-1 5 2v9l-3 12-5 3-8-1-3-2-11 1-5 5-4 5-7 30-5 25-1 3-2 1h-23l-1-2 2-5-5 2-6 4-9 2h-16l-7-3-5-5h-6l-9 6-9 2h-14l-8-4-5-6-2-3-7 8-7 4-5 1h-16l-7-3-8-7-5-10-2-14 1-12 7-22 9-13 7-6 8-5 9-2h14l6 2 5 5 3 1 1-7h26l-1 8-5 26-5 23-1 12 1 3 6 1 8-4 7-8 2-10 6-23 2-11-10-1 2-13 1-3h10l3-9 4-20z" fill="#FDFBF9"/>
<path transform="translate(1065,770)" d="m0 0h60l1 19v44l-1 273-6 1h-33l-4-1v-335h-17z" fill="#4D79B0"/>
<path transform="translate(869,770)" d="m0 0h43l1 337h-43l-1-1-1-335z" fill="#4D79B0"/>
<path transform="translate(609,1499)" d="m0 0 4 1 1 2-11 49-5 23-4 18-2 6v7l4 4h6l9-5 2-5 3-21 6-18 6-9 5-6 11-7 12-3h18l9 3 9 8 4 9v9l-4 10-7 8-12 6-14 3-16 2 1 8 4 6 5 2h13l13-4 7-4 5-4 7 1 5 3-2 7-9 10-8 5-8 4-10 2h-23l-8-2-11-7-2-2-4 1-7 4-8 5-5 1h-16l-6-2-8-7-2-2-11 9-6 2h-17l-8-3-8-7-4-7-2-11 1-20 2-11 8-15 7-9 13-9 8-2h15l7 2 7 6 3-11 5-23 3-9z" fill="#FCFBF8"/>
<path transform="translate(799,1144)" d="m0 0h405v32l-215 1-191-1v-13z" fill="#FDFCFB"/>
<path transform="translate(967,431)" d="m0 0h64l39 3 28 6 16 5 15 6 12 7 13 10 7 8v88l-2 2-9-27-7-16-12-19-11-12v-2l-4-2-8-7-14-9-16-8-11-5-29-7-18-2h-44l-21 3-25 7-16 7-18 11-9 7-5 4-7 8-9 12-9 16-8 17-8 23h-2v-28l1-64 12-10 14-9 16-8 15-5 26-6 27-3z" fill="#FCFAF6"/>
<path transform="translate(530,1293)" d="m0 0h11l16 2 16 8 8 8 4 11v13l-4 3-13 2-11 1-1-11-4-6-10-5h-12l-8 3-6 4-3 5-1 6 2 6 5 5 8 5 29 13 11 8 7 9 4 13v12l-4 15-5 9-7 8-13 8-21 6h-21l-17-4-10-4-10-9-6-9-3-16v-7l2-2 26-4h4v9l3 9 4 5 9 3h18l10-5 5-7 1-6-2-9-9-6-10-5-15-7-10-5-9-7-6-9-3-10v-13l3-12 6-10 5-6 10-7 14-6z" fill="#FDFCFA"/>
<path transform="translate(599,776)" d="m0 0h102l112 1v46l-1 1-172 1h-43v-45z" fill="#4D79B0"/>
<path transform="translate(789,1497)" d="m0 0 4 1 7 31 4 25 4 17 1 7h2l8-13 10-17 12-22 11-18 4-7 3-3 28-1 1 3-4 22-5 24-9 44-6 29-2 8-1 1h-23l1-10 4-20 4-18 4-19 4-17h-2l-2 5-11 19-10 17-10 18-5 8-1 2h-20l-2-4-3-16-5-26-3-16-2-6-3 19-6 27-6 28-3 9h-22l-1-1 1-11 6-25 8-36 12-56 1-1z" fill="#FDFCF9"/>
<path transform="translate(1271,776)" d="m0 0h51l79 1 1 11v36h-215v-47z" fill="#4D79B0"/>
<path transform="translate(998,995)" d="m0 0h7l9 3 8 7 8 9 4 8 1 9 1 45v59h-72l-1-2 1-45v-56l2-11 6-9 7-8 7-5z" fill="#4D79B0"/>
<path transform="translate(830,708)" d="m0 0h339l2 1v23h-341l-1-9v-14z" fill="#FCFBF8"/>
<path transform="translate(962,767)" d="m0 0h77l1 3v82l-8 1h-70l-1-19v-66z" fill="#FCFAF7"/>
<path transform="translate(962,869)" d="m0 0h77v86l-1 1h-76l-1-1z" fill="#FDFBF9"/>
<path transform="translate(689,889)" d="m0 0h57l1 67-2 1h-54l-1-1z" fill="#FDFCF9"/>
<path transform="translate(699,1037)" d="m0 0h46l1 1v66l-2 1h-51l-3-1v-66z" fill="#FDFCFA"/>
<path transform="translate(1254,889)" d="m0 0h54l1 1v66l-1 1h-51l-3-1-1-7v-59z" fill="#FDFBF8"/>
<path transform="translate(1258,1037)" d="m0 0h47l4 1v66h-55l-1-1v-57l1-8z" fill="#FDFCFA"/>
<path transform="translate(962,767)" d="m0 0h77l1 3v82l-8 1h-70l-1-19v-66zm11 10-1 1v61l1 2h55v-63l-1-1z" fill="#3A4160"/>
<path transform="translate(962,869)" d="m0 0h77v86l-1 1h-76l-1-1zm10 11v62l1 1 25 1h30v-64z" fill="#393F5E"/>
<path transform="translate(1244,1027)" d="m0 0h52l24 1 1 52v34l-5 1h-73v-87zm14 10-4 1-1 8v57l1 1h55v-66l-4-1z" fill="#39405F"/>
<path transform="translate(702,1027)" d="m0 0h16l38 1v85l-1 1h-76l-1-1v-85zm-3 10-9 1v66l3 1h51l2-1v-66l-1-1z" fill="#383E5C"/>
<path transform="translate(1255,1204)" d="m0 0h164v17l-29 1h-134l-1-1z" fill="#E5BE73"/>
<path transform="translate(726,1203)" d="m0 0h20v17l-1 1-49 1h-97l-17-1v-17z" fill="#E5BE73"/>
<path transform="translate(1244,880)" d="m0 0h76l1 46v36l-1 4h-77v-85zm10 9-1 1v59l1 7 3 1h51l1-1v-66l-3-1z" fill="#3A4363"/>
<path transform="translate(679,880)" d="m0 0h77v86h-77zm10 9 1 67 1 1h54l2-1-1-67z" fill="#282E4D"/>
<path transform="translate(624,831)" d="m0 0 8 1 1 3-1 3-1 351-3 1-2-1-2-7-1-312v-38z" fill="#272B49"/>
<path transform="translate(1343,1359)" d="m0 0h10l8 4 2 3v15l-5 19-4 14-8 10-5 3-4 1h-9l-8-4-3-6-1-4v-11l3-14 6-15 6-8 5-4z" fill="#393F5D"/>
<path transform="translate(1097,1359)" d="m0 0h9l7 3 3 5v12l-5 24-8 16-4 5-7 3-7 1-9-2-3-3-2-7v-16l4-18 8-15 6-5z" fill="#393E5D"/>
<path transform="translate(1476,1357)" d="m0 0 8 1 5 4 2 4v11l-7 8-2 4 1 10 5 6v6l-7 11-6 5-7 2h-7l-8-3-3-3-1-3v-22l2-11 8-19 7-7z" fill="#393F5D"/>
<path transform="translate(964,1176)" d="m0 0h46l183 1v1h-23v2l-76 1 4 2-2 1h-204l-2-1-9 1-5-1 3-2h-5l-1 2-1-2-63-1v-1l-9-1v-1z" fill="#282D4C"/>
<path transform="translate(592,768)" d="m0 0h231v4h-11-3-11l-17 1-4 1-4-1h-7-4l-4-1v2l-5-1-3 1h-9l-14 1h-50l-19-1h-2-28v-1h-20v1l-12 1v51h30l-3 2-13 2h-9l-5 2h-6v-63z" fill="#2A2F4D"/>
<path transform="translate(852,1115)" d="m0 0h81v20h-82v-17z" fill="#4D79B0"/>
<path transform="translate(1129,1115)" d="m0 0h19v20l-39 1h-42v-20z" fill="#4D79B0"/>
<path transform="translate(1335,1291)" d="m0 0h9l10 3 9 5 4 2 6-1 4-6h18l-1 8-8 12-5 3-7 3h-9l-16-6-6-3-5 1-5 6-2 5h-14l-1-1v-7l5-12 5-8 5-3z" fill="#FDFBF9"/>
<path transform="translate(1130,742)" d="m0 0 23 1v18l-87 1-2-1 1-17 6-1z" fill="#4D79B0"/>
<path transform="translate(850,743)" d="m0 0h86v18h-87v-10z" fill="#4D79B0"/>
<path transform="translate(1368,832)" d="m0 0h5l2 6 1 68 1 8v110l-1 3v57l-1 10v24l-1 7h-1l-1-10 1-13h-2v-6-1-6-2-50-2l-1-73-2-124-1-2z" fill="#272B49"/>
<path transform="translate(560,1553)" d="m0 0 8 1 4 2 2 3v10l-5 20-5 13-7 5-6 2-8-1-6-6v-16l5-17 5-8 6-5z" fill="#39405F"/>
<path transform="translate(1459,1553)" d="m0 0 8 2 5 5-1 9-7 27-6 8-5 4-2 1h-9l-6-4-2-4v-13l2-9 7-16 8-7z" fill="#393F5D"/>
<path transform="translate(938,1554)" d="m0 0h9l5 5v10l-4 21-5 10-5 6-5 2h-10l-5-4-1-2v-19l3-12 6-10 5-4z" fill="#393F5D"/>
<path transform="translate(1244,880)" d="m0 0h75l1 53v19l-1 13-3-3v-66l-1-1-1 53h-1v-58l3-1-2-4-6 3-2 2h-52l-1 61h-2l-1 3-1-1v-31l-1 3v27l-2 4-2 1z" fill="#282C4B"/>
<path transform="translate(1177,768)" d="m0 0h232l1 3-2 6-1 26-2 6 1 1v15h2v2h-2l1 3h-2l-2-3-5-1v-1h5v-50h-12l-4-2-9-1v2l-6-1-4 2h-13l-2-3v2l-5 1-16-1v-1l-140-1-10 1-4-1z" fill="#2A2E4C"/>
<path transform="translate(917,812)" d="m0 0h1l1 23 1 55v137l-1 31v44l-2 3h-3v-48l1-180v-64z" fill="#272B49"/>
<path transform="translate(812,831)" d="m0 0 3 1 1 7v34l1 68h1v10l-1 3 1 5h-1v8h1v6h-1l-1 23v133l-2 7h-2z" fill="#2C3252"/>
<path transform="translate(1409,771)" d="m0 0h1v61l-8 1h-24v276h-1l-1-195-1-15-1-61-2-5-4-1-1 4v-3h-11l-16-1 1-2 16-1v-2l5-1h10v-2h28l5 4 1-1h2v-2h-2v-15l-2-1 2-6 1-26z" fill="#40537A"/>
<path transform="translate(625,1286)" d="m0 0h12l6 4 5 6 1 2v9l-5 8-5 4-5 2h-9l-10-6-3-7 1-11 7-8z" fill="#FDFCFA"/>
<path transform="translate(702,1027)" d="m0 0h16l38 1-1 22-2-4 1-4-3 1v50l-1 6-3-3v-59h-57l1-2-3-3-4 2-1 4-1 17-1 13-1 23h-1v-61l1-2z" fill="#282C4B"/>
<path transform="translate(679,880)" d="m0 0 2 1-1 84h4v-2h-2l1-2h1l-1-1v-54l2 3 1 40 1 1v-12h2v-39h1l1 57 54 1 1 2 6-1v3h-3v2l4-1v-2h2v-80h1v86h-77z" fill="#383F5D"/>
<path transform="translate(726,600)" d="m0 0h12l8 20 2 7v6l-4 4-5 1h-16l-8-4v-13l4-11 4-8z" fill="#4D79B0"/>
<path transform="translate(631,825)" d="m0 0h181v5h-9l1-2-2-1-1 3-4 1h-151l-3-2v2l-12-3z" fill="#272B49"/>
<path transform="translate(1193,825)" d="m0 0h179v1l-15 1v2l2 1-22 1h-145l-4-2 1-2h4z" fill="#272B49"/>
<path transform="translate(1244,1027)" d="m0 0h52l24 1 1 52v31h-4l-1-69-1-3 1-3-2-6-5 2-2 2-4 1 5 1v1h-49l2-2h7v-2h-6v-2l-14 1-2 10-2 3z" fill="#2A3151"/>
<path transform="translate(732,563)" d="m0 0 6 1 5 3 3 9-1 10-2 4-9 2h-8l-7-3-4-8 2-9 5-5 5-3z" fill="#4D79B0"/>
<path transform="translate(1561,965)" d="m0 0h2l1 10v232h-2l-1-23v-158l-1-36v-20z" fill="#272B49"/>
<path transform="translate(1058,732)" d="m0 0h114v3h-122l-6 1h-90l-3-1h-50l-71-1v-1z" fill="#2D385A"/>
<path transform="translate(909,1183)" d="m0 0h179l4 3-2 1h-260v-1h77v-2z" fill="#446290"/>
<path transform="translate(660,1551)" d="m0 0 10 1 3 4 1 9-4 7-8 5-10 3h-8v-9l4-10 7-8z" fill="#393F5E"/>
<path transform="translate(1157,1496)" d="m0 0h22v5l-5 6-5 5-6 7-3 1h-20l6-8 7-10z" fill="#FCFAF7"/>
<path transform="translate(889,1704)" d="m0 0h23l83 1 1 2h-265l3-2h66z" fill="#272B49"/>
<path transform="translate(607,772)" d="m0 0h24v1h10v-1h19v1l17 1 1 2-79 1-1 5-1 43h34v3l10 2 1 2-10 1-8-1-2 2v-2h-26l2-2 3-1h10l12-2-27-1v-51l11-2z" fill="#383D5B"/>
<path transform="translate(970 1e3)" d="m0 0 1 3-6 9-2 5h-2l-1 44v56l1 11-1 3-4 1-1-2h2v-91l1-25 3-7 4 1 1-6z" fill="#272B49"/>
<path transform="translate(1561,965)" d="m0 0h2l1 10v119h-1l-1-27-1-1v-40l-1-36v-20z" fill="#2A2F4D"/>
<path transform="translate(1041,1030)" d="m0 0 2 2 1 101 1 3h-5l-2-3 1-48 1-3z" fill="#272B49"/>
<path transform="translate(1318,1028)" d="m0 0h2l1 52v31h-4l-1-69-1-3 1-3-2-4v-3z" fill="#2F3858"/>
<path transform="translate(1089,1183)" d="m0 0m-75 0h74l4 3-2 1h-81v-2z" fill="#425C87"/>
<path transform="translate(1061,1107)" d="m0 0h11l1 4 6 1 1 2-14 1v13l-1 6-3 1-1-5h-1v-22z" fill="#272B49"/>
<path transform="translate(690,1199)" d="m0 0 10 2v-2h5v1h40l-1 4-105-1v-1l41-1 10-1z" fill="#272D4B"/>
<path transform="translate(1409,771)" d="m0 0h1v51l-2 4-2-1v-15l-2-1 2-6 1-26z" fill="#3E4D71"/>
<path transform="translate(749,1052)" d="m0 0h1l1 15v26l-1 6-3-3v-43z" fill="#272B49"/>
<path transform="translate(755,880)" d="m0 0h1v86l-23-1v-1h9l-1-3h6v3l5-2 1-2h2z" fill="#393E5D"/>
<path transform="translate(1e3 771)" d="m0 0h13l2 2 5-2 4 1h3l-1 5-28-1 2-1z" fill="#272B49"/>
<path transform="translate(788,1136)" d="m0 0h22v1l-12 1-6 4-1 7h1v5l-2 3h2v11h-3z" fill="#272B49"/>
<path transform="translate(899,1139)" d="m0 0 16 1-1 2h-10l-7 1-2 1-17-1h-2-6v-3h12z" fill="#272B49"/>
<path transform="translate(1170,732)" d="m0 0h2v3h-81v-2z" fill="#272B49"/>
<path transform="translate(844,1107)" d="m0 0h22v1l-7 1 2 4-7 1-10-1-2 2v-6z" fill="#272B49"/>
<path transform="translate(778,1544)" d="m0 0 2 1 3 10v10l-5 1-1-3v-10z" fill="#2E3555"/>
<path transform="translate(602,774)" d="m0 0m-2 0 2 2-3 1-1 5-1 43h29v1h-30v-51z" fill="#393E5C"/>
<path transform="translate(1014,644)" d="m0 0 4 1-1 3-14 6h-5v-3l6-1 3-3z" fill="#2D3454"/>
<path transform="translate(994,1183)" d="m0 0h9l8 1-3 3h-19l-6-1v-2z" fill="#3D4A6E"/>
<path transform="translate(1014,1183)" d="m0 0 30 1v2h-35l2-2z" fill="#353A58"/>
<path transform="translate(954,1183)" d="m0 0h13l16 1v2h-33z" fill="#343856"/>
<path transform="translate(688,1063)" d="m0 0h1v32l-3-1v-28z" fill="#272B49"/>
<path transform="translate(704,1335)" d="m0 0 1 2h2l2 7-7 6-1-4z" fill="#2D3352"/>
<path transform="translate(1192,1136)" d="m0 0h21v11l-2-1-2-5-3-1v-2l-14-1z" fill="#272B49"/>
<path transform="translate(735,644)" d="m0 0h2l1 3-6 4-5-1-6-4 2-1 6 1v2l6-1z" fill="#2D3656"/>
<path transform="translate(800,1177)" d="m0 0h24l-1 3h-14v-1l-9-1z" fill="#272B49"/>
<path transform="translate(1081,1183)" d="m0 0h7l4 3-6 1-10-1 3-2z" fill="#353957"/>
<path transform="translate(980,645)" d="m0 0 9 2 5 3v2l-9-3-5-2z" fill="#2E3555"/>
<path transform="translate(937,1107)" d="m0 0h4v5l-6 1-2-1 1-3h3z" fill="#292D4B"/>
<path transform="translate(755,1341)" d="m0 0 4 2 2 5h2l-1 5-3-4-4-6z" fill="#2D3453"/>
<path transform="translate(1029,639)" d="m0 0h8l-1 3-3 1h-7l1-3z" fill="#292F4D"/>
<path transform="translate(741,961)" d="m0 0h6v3l4 1h-18v-1h9z" fill="#272B49"/>
<path transform="translate(1014,1183)" d="m0 0 11 1v2h-16l2-2z" fill="#343957"/>
<path transform="translate(1218,1551)" d="m0 0 7 1 1 3h-9l-2-2z" fill="#2C3455"/>
<path transform="translate(824,1177)" d="m0 0h9v2l-3 1h-7l-3-2z" fill="#2B2F4D"/>
<path transform="translate(749,1032)" d="m0 0 4 2 1 1v5l-1-2-3-1v-2l-4-1z" fill="#393E5C"/>
</svg>
